{"title":"L'eclisse (Michelangelo Antonioni, 1962) (720p)","uid":8974478,"size":10923276047,"categoryP":"video","categoryS":"hd___movies","magnet":"?xt=urn:btih:170ba1bbbc88ba01466170000efc6590ffb9a3df&amp;dn=+L%27eclisse+%28Michelangelo+Antonioni%2C+1962%29+%28720p%29&amp;tr=udp%3A%2F%2Ftracker.openbittorrent.com%3A80&amp;tr=udp%3A%2F%2Fopen.demonii.com%3A1337&amp;tr=udp%3A%2F%2Ftracker.coppersurfer.tk%3A6969&amp;tr=udp%3A%2F%2Fexodus.desync.com%3A6969","seeders":1,"leechers":0,"uploader":"moonflux","files":1,"time":1380403373,"description":"In the suburbs of Rome, the translator Vittoria breaks her engagement with her boyfriend, the writer Ricardo, after a troubled night. Vittoria goes downtown to meet her mother, who is addicted to the stock market, and she meets the broker Piero on a day of crash. The materialist Piero and the absent Vittoria begin a monosyllabic relationship.\n\nGeneral\nUnique ID : 175170252678439826064990142184155152705 (0x83C8904188047DF8A0AD7E64BBF28141)\nComplete name : L'eclisse 1962 720p BluRay DD1.0 x264-EA.mkv\nFormat : Matroska\nFormat version : Version 4 / Version 2\nFile size : 10.2 GiB\nDuration : 2h 3mn\nOverall bit rate : 11.8 Mbps\nMovie name : Michelangelo Antonioni-L'eclisse (1962)\nEncoded date : UTC 2013-05-22 10:53:33\nWriting application : mkvmerge v6.2.0 ('Promised Land') built on Apr 28 2013 12:22:01\nWriting library : libebml v1.3.0 + libmatroska v1.4.0\n\nVideo\nID : 1\nFormat : AVC\nFormat/Info : Advanced Video Codec\nFormat profile : &lt;a class=&quot;__cf_email__&quot; href=&quot;/cdn-cgi/l/email-protection&quot; data-cfemail=&quot;b0f8d9d7d8f0fc849e81&quot;&gt;[email&amp;#160;protected]&lt;/a&gt;&lt;script cf-hash='f9e31' type=&quot;text/javascript&quot;&gt;\n/* &lt;![CDATA[ */!function(){try{var t=&quot;currentScript&quot;in document?document.currentScript:function(){for(var t=document.getElementsByTagName(&quot;script&quot;),e=t.length;e--;)if(t[e].getAttribute(&quot;cf-hash&quot;))return t[e]}();if(t&amp;&amp;t.previousSibling){var e,r,n,i,c=t.previousSibling,a=c.getAttribute(&quot;data-cfemail&quot;);if(a){for(e=&quot;&quot;,r=parseInt(a.substr(0,2),16),n=2;a.length-n;n+=2)i=parseInt(a.substr(n,2),16)^r,e+=String.fromCharCode(i);e=document.createTextNode(e),c.parentNode.replaceChild(e,c)}}}catch(u){}}();/* ]]&gt; */&lt;/script&gt;\nFormat settings, CABAC : Yes\nFormat settings, ReFrames : 9 frames\nCodec ID : V_MPEG4/ISO/AVC\nDuration : 2h 3mn\nBit rate : 11.3 Mbps\nWidth : 1 280 pixels\nHeight : 696 pixels\nDisplay aspect ratio : 16:9\nFrame rate : 23.976 fps\nColor space : YUV\nChroma subsampling : 4:2:0\nBit depth : 8 bits\nScan type : Progressive\nBits/(Pixel*Frame) : 0.530\nStream size : 9.80 GiB (96%)\nTitle : RiP of -EA\nWriting library : x264 core 132 r2310 76a5c3a\nEncoding settings : cabac=1 // deblock=1:-3:-3 / analyse=0x3:0x113 / me=umh / subme=11 / psy=1 / psy_rd=1.05:0.00 // me_range=32 / chroma_me=0 / trellis=2 / 8x8dct=1 / cqm=0 / deadzone=21,11 / fast_pskip=0 / chroma_qp_offset=-2 / threads=12 / lookahead_threads=3 / sliced_threads=0 / nr=0 / decimate=0 / interlaced=0 / bluray_compat=0 / constrained_intra=0 / bframes=10 / b_pyramid=2 / b_adapt=2 / b_bias=0 / direct=3 / weightb=1 / open_gop=0 / weightp=2 / keyint=240 / keyint_min=23 / scenecut=40 / intra_refresh=0 / rc_lookahead=50 / rc=crf / mbtree=0 / crf=17.8 / qcomp=0.75 / qpmin=0 / qpmax=69 / qpstep=4 / vbv_maxrate=43300 / vbv_bufsize=48125 / crf_max=0.0 / nal_hrd=none / ip_ratio=1.40 / pb_ratio=1.30 / aq=1:0.85\nLanguage : Italian\nColor primaries : BT.709-5, BT.1361, IEC 61966-2-4, SMPTE RP177\nTransfer characteristics : BT.709-5, BT.1361\nMatrix coefficients : BT.709-5, BT.1361, IEC 61966-2-4 709, SMPTE RP177\n\nAudio\nID : 2\nFormat : AC-3\nFormat/Info : Audio Coding 3\nMode extension : CM (complete main)\nCodec ID : A_AC3\nDuration : 2h 3mn\nBit rate mode : Constant\nBit rate : 192 Kbps\nChannel(s) : 1 channel\nChannel positions : Front: C\nSampling rate : 48.0 KHz\nBit depth : 16 bits\nCompression mode : Lossy\nStream size : 170 MiB (2%)\nTitle : OST from Criterion DVD, sync'ed by -EA\nLanguage : Italian\n\nText\nID : 3\nFormat : UTF-8\nCodec ID : S_TEXT/UTF8\nCodec ID/Info : UTF-8 Plain Text\nTitle : Criterion's Eng. subs\nLanguage : English","torrent":{"xt":"urn:btih:170ba1bbbc88ba01466170000efc6590ffb9a3df","amp;dn":"+L%27eclisse+%28Michelangelo+Antonioni%2C+1962%29+%28720p%29","amp;tr":["udp%3A%2F%2Ftracker.openbittorrent.com%3A80","udp%3A%2F%2Fopen.demonii.com%3A1337","udp%3A%2F%2Ftracker.coppersurfer.tk%3A6969","udp%3A%2F%2Fexodus.desync.com%3A6969"],"infoHash":"170ba1bbbc88ba01466170000efc6590ffb9a3df","infoHashBuffer":{"type":"Buffer","data":[23,11,161,187,188,136,186,1,70,97,112,0,14,252,101,144,255,185,163,223]},"announce":[],"urlList":[]}}